<svg width="360" height="480" viewBox="0 0 360 480" fill="none" xmlns="http://www.w3.org/2000/svg">
<g clip-path="url(#clip0_26_1290)">
<rect width="360" height="480" rx="29.9978" fill="white"/>
<circle cx="272.526" cy="163.916" r="69.5956" transform="rotate(35.3222 272.526 163.916)" fill="#565EEF"/>
<circle cx="88.3074" cy="295.769" r="69.5956" transform="rotate(35.3222 88.3074 295.769)" fill="#565EEF"/>
<rect x="228.016" y="217.45" width="139.191" height="140.953" transform="rotate(35.3222 228.016 217.45)" fill="#333BCB"/>
<g filter="url(#filter0_b_26_1290)">
<path fill-rule="evenodd" clip-rule="evenodd" d="M30 0C13.4315 0 0 13.4315 0 30V450C0 466.569 13.4315 480 30 480H330C346.569 480 360 466.569 360 450V30C360 13.4315 346.569 0 330 0H30ZM230 160C174.772 160 130 204.772 130 260V390H330V260C330 204.772 285.228 160 230 160Z" fill="#CDCDCD" fill-opacity="0.1"/>
</g>
<g style="mix-blend-mode:multiply" opacity="0.36" filter="url(#filter1_i_26_1290)">
<path d="M130 260C130 204.772 174.772 160 230 160C285.228 160 330 204.772 330 260V390H130V260Z" fill="white"/>
</g>
</g>
<defs>
<filter id="filter0_b_26_1290" x="-29.0373" y="-29.0373" width="418.075" height="538.075" filterUnits="userSpaceOnUse" color-interpolation-filters="sRGB">
<feFlood flood-opacity="0" result="BackgroundImageFix"/>
<feGaussianBlur in="BackgroundImageFix" stdDeviation="14.5187"/>
<feComposite in2="SourceAlpha" operator="in" result="effect1_backgroundBlur_26_1290"/>
<feBlend mode="normal" in="SourceGraphic" in2="effect1_backgroundBlur_26_1290" result="shape"/>
</filter>
<filter id="filter1_i_26_1290" x="130" y="160" width="211.222" height="241.222" filterUnits="userSpaceOnUse" color-interpolation-filters="sRGB">
<feFlood flood-opacity="0" result="BackgroundImageFix"/>
<feBlend mode="normal" in="SourceGraphic" in2="BackgroundImageFix" result="shape"/>
<feColorMatrix in="SourceAlpha" type="matrix" values="0 0 0 0 0 0 0 0 0 0 0 0 0 0 0 0 0 0 127 0" result="hardAlpha"/>
<feOffset dx="11.2216" dy="11.2216"/>
<feGaussianBlur stdDeviation="6.07837"/>
<feComposite in2="hardAlpha" operator="arithmetic" k2="-1" k3="1"/>
<feColorMatrix type="matrix" values="0 0 0 0 0.337255 0 0 0 0 0.368627 0 0 0 0 0.937255 0 0 0 0.5 0"/>
<feBlend mode="normal" in2="shape" result="effect1_innerShadow_26_1290"/>
</filter>
<clipPath id="clip0_26_1290">
<rect width="360" height="480" rx="29.9978" fill="white"/>
</clipPath>
</defs>
</svg>
