<?xml version="1.0" standalone="no"?>
<!DOCTYPE svg PUBLIC "-//W3C//DTD SVG 20010904//EN"
 "http://www.w3.org/TR/2001/REC-SVG-20010904/DTD/svg10.dtd">
<svg version="1.0" xmlns="http://www.w3.org/2000/svg"
 width="700.000000pt" height="700.000000pt" viewBox="0 0 700.000000 700.000000"
 preserveAspectRatio="xMidYMid meet">
<metadata>
Created by potrace 1.14, written by Peter Selinger 2001-2017
</metadata>
<g transform="translate(0.000000,700.000000) scale(0.100000,-0.100000)"
fill="#000000" stroke="none">
<path d="M772 5679 c-64 -12 -141 -51 -193 -97 -47 -42 -114 -159 -124 -217
-3 -16 -8 -46 -11 -65 -4 -19 -7 -831 -6 -1805 0 -1936 -3 -1847 57 -1965 33
-64 110 -142 174 -175 84 -42 208 -52 326 -26 104 23 173 59 618 315 17 10
102 58 187 107 85 49 162 93 170 99 8 5 95 55 193 112 98 57 193 111 210 121
18 11 111 64 207 119 96 56 196 114 223 129 l47 29 1 -303 c1 -352 2 -359 29
-448 58 -193 219 -306 420 -294 69 4 79 6 150 25 68 18 150 58 305 147 77 44
156 90 175 101 72 40 359 207 480 277 123 71 141 82 268 154 34 20 144 83 244
141 212 123 238 138 429 248 79 46 151 88 159 93 19 12 492 285 546 315 231
130 498 290 535 321 187 155 221 450 75 646 -36 48 -122 127 -151 138 -8 3
-123 69 -225 129 -42 24 -140 81 -175 100 -22 13 -53 31 -70 41 -16 10 -43 26
-60 35 -16 9 -158 91 -315 182 -157 91 -298 172 -315 182 -16 9 -106 61 -200
115 -484 280 -817 472 -875 505 -36 20 -191 110 -345 200 -154 90 -317 180
-361 201 -296 140 -560 79 -669 -156 -51 -110 -54 -140 -55 -572 l0 -241 -147
85 c-166 96 -199 115 -246 142 -167 95 -207 117 -237 136 -19 13 -82 49 -140
82 -58 33 -166 95 -240 138 -74 43 -250 144 -390 225 -140 81 -277 157 -305
170 -121 54 -274 78 -373 59z"/>
</g>
</svg>
