<svg width="246" height="202" viewBox="0 0 246 202" fill="none" xmlns="http://www.w3.org/2000/svg">
<mask id="path-1-outside-1_26_1245" maskUnits="userSpaceOnUse" x="-2.5068" y="-2.63838" width="249.982" height="206.848" fill="black">
<rect fill="white" x="-2.5068" y="-2.63838" width="249.982" height="206.848"/>
<path fill-rule="evenodd" clip-rule="evenodd" d="M187.681 166.415C190.51 155.857 202.242 150.188 211.912 145.095C218.325 141.717 223.365 135.777 225.389 128.223C227.413 120.67 226.018 113.005 222.153 106.873C216.325 97.6274 209 86.8517 211.828 76.2946L212.523 73.7008C216.316 59.546 207.916 44.9965 193.761 41.2038C179.653 37.4235 165.153 45.756 161.302 59.8264C165.002 45.7156 156.611 31.249 142.503 27.4687C128.348 23.6759 113.798 32.0761 110.006 46.2309L104.212 67.8538C104.212 67.8544 104.211 67.8548 104.21 67.8546C104.21 67.8545 104.209 67.8539 104.21 67.8533L110.003 46.2314C113.796 32.0765 105.396 17.5271 91.241 13.7343C77.0861 9.94152 62.5367 18.3417 58.7439 32.4965L58.0469 35.0977C55.219 45.6517 43.493 51.3207 33.8263 56.4137C27.4144 59.7919 22.3756 65.7313 20.3519 73.2838C18.3282 80.8363 19.7223 88.4994 23.5861 94.6309C29.4111 103.875 36.7316 114.647 33.9037 125.201L33.2056 127.807C29.4128 141.962 37.8129 156.511 51.9678 160.304C66.1226 164.097 80.6721 155.696 84.4649 141.542L90.2595 119.916C90.2597 119.915 90.2603 119.915 90.2609 119.915C90.2615 119.915 90.2618 119.916 90.2617 119.916L84.4673 141.541C80.6745 155.696 89.0746 170.245 103.229 174.038C117.338 177.819 131.838 169.486 135.689 155.416C131.988 169.526 140.38 183.993 154.488 187.773C168.643 191.566 183.192 183.166 186.985 169.011L187.681 166.415Z"/>
</mask>
<path fill-rule="evenodd" clip-rule="evenodd" d="M187.681 166.415C190.51 155.857 202.242 150.188 211.912 145.095C218.325 141.717 223.365 135.777 225.389 128.223C227.413 120.67 226.018 113.005 222.153 106.873C216.325 97.6274 209 86.8517 211.828 76.2946L212.523 73.7008C216.316 59.546 207.916 44.9965 193.761 41.2038C179.653 37.4235 165.153 45.756 161.302 59.8264C165.002 45.7156 156.611 31.249 142.503 27.4687C128.348 23.6759 113.798 32.0761 110.006 46.2309L104.212 67.8538C104.212 67.8544 104.211 67.8548 104.21 67.8546C104.21 67.8545 104.209 67.8539 104.21 67.8533L110.003 46.2314C113.796 32.0765 105.396 17.5271 91.241 13.7343C77.0861 9.94152 62.5367 18.3417 58.7439 32.4965L58.0469 35.0977C55.219 45.6517 43.493 51.3207 33.8263 56.4137C27.4144 59.7919 22.3756 65.7313 20.3519 73.2838C18.3282 80.8363 19.7223 88.4994 23.5861 94.6309C29.4111 103.875 36.7316 114.647 33.9037 125.201L33.2056 127.807C29.4128 141.962 37.8129 156.511 51.9678 160.304C66.1226 164.097 80.6721 155.696 84.4649 141.542L90.2595 119.916C90.2597 119.915 90.2603 119.915 90.2609 119.915C90.2615 119.915 90.2618 119.916 90.2617 119.916L84.4673 141.541C80.6745 155.696 89.0746 170.245 103.229 174.038C117.338 177.819 131.838 169.486 135.689 155.416C131.988 169.526 140.38 183.993 154.488 187.773C168.643 191.566 183.192 183.166 186.985 169.011L187.681 166.415Z" fill="#271A58"/>
<path d="M212.523 73.7008L210.591 73.1832L212.523 73.7008ZM161.302 59.8264L159.367 59.3191L163.231 60.3544L161.302 59.8264ZM84.4649 141.542L86.3967 142.059L84.4649 141.542ZM135.689 155.416L137.623 155.923L133.76 154.888L135.689 155.416ZM23.5861 94.6309L21.894 95.6972L23.5861 94.6309ZM211.828 76.2946L213.76 76.8122L211.828 76.2946ZM33.8263 56.4137L32.8941 54.6443L33.8263 56.4137ZM90.2595 119.916L88.3277 119.398L90.2595 119.916ZM211.912 145.095L210.98 143.325L211.912 145.095ZM223.457 127.706C221.583 134.699 216.921 140.196 210.98 143.325L212.844 146.864C219.73 143.238 225.147 136.855 227.321 128.741L223.457 127.706ZM220.461 107.94C224.042 113.62 225.331 120.713 223.457 127.706L227.321 128.741C229.495 120.627 227.995 112.391 223.845 105.807L220.461 107.94ZM210.591 73.1832L209.896 75.7769L213.76 76.8122L214.455 74.2185L210.591 73.1832ZM193.243 43.1356C206.331 46.6425 214.098 60.0953 210.591 73.1832L214.455 74.2185C218.534 58.9967 209.501 43.3506 194.279 39.2719L193.243 43.1356ZM163.231 60.3544C166.791 47.3447 180.199 39.6403 193.243 43.1356L194.279 39.2719C179.107 35.2066 163.514 44.1672 159.373 59.2985L163.231 60.3544ZM141.985 29.4005C155.03 32.8959 162.789 46.2721 159.367 59.3191L163.236 60.3338C167.216 45.1591 158.192 29.6021 143.02 25.5368L141.985 29.4005ZM111.937 46.7486C115.444 33.6606 128.897 25.8936 141.985 29.4005L143.02 25.5368C127.799 21.4582 112.152 30.4915 108.074 45.7133L111.937 46.7486ZM106.144 68.3715L111.937 46.7486L108.074 45.7133L102.28 67.3362L106.144 68.3715ZM108.071 45.7138L102.278 67.3356L106.141 68.3709L111.935 46.749L108.071 45.7138ZM90.7233 15.6662C103.811 19.1731 111.578 32.6258 108.071 45.7138L111.935 46.749C116.014 31.5272 106.98 15.8811 91.7586 11.8025L90.7233 15.6662ZM60.6757 33.0142C64.1826 19.9262 77.6354 12.1593 90.7233 15.6662L91.7586 11.8025C76.5368 7.72379 60.8907 16.7571 56.812 31.9789L60.6757 33.0142ZM59.9787 35.6153L60.6757 33.0142L56.812 31.9789L56.115 34.5801L59.9787 35.6153ZM22.2838 73.8014C24.1573 66.8094 28.8191 61.3125 34.7586 58.1832L32.8941 54.6443C26.0098 58.2714 20.5939 64.6532 18.4201 72.7661L22.2838 73.8014ZM25.2782 93.5647C21.699 87.8848 20.4103 80.7934 22.2838 73.8014L18.4201 72.7661C16.2462 80.8791 17.7456 89.1139 21.894 95.6972L25.2782 93.5647ZM35.1374 128.324L35.8355 125.719L31.9718 124.684L31.2737 127.289L35.1374 128.324ZM52.4854 158.372C39.3975 154.865 31.6305 141.412 35.1374 128.324L31.2737 127.289C27.1951 142.511 36.2284 158.157 51.4501 162.236L52.4854 158.372ZM82.533 141.024C79.0261 154.112 65.5734 161.879 52.4854 158.372L51.4501 162.236C66.6719 166.314 82.3181 157.281 86.3967 142.059L82.533 141.024ZM88.3277 119.398L82.533 141.024L86.3967 142.059L92.1914 120.433L88.3277 119.398ZM86.3991 142.059L92.1935 120.434L88.3298 119.399L82.5354 141.023L86.3991 142.059ZM103.747 172.106C90.6592 168.599 82.8922 155.147 86.3991 142.059L82.5354 141.023C78.4568 156.245 87.4901 171.891 102.712 175.97L103.747 172.106ZM133.76 154.888C130.199 167.897 116.792 175.602 103.747 172.106L102.712 175.97C117.884 180.035 133.477 171.075 137.618 155.943L133.76 154.888ZM155.006 185.841C141.961 182.346 134.202 168.97 137.623 155.923L133.754 154.908C129.775 170.083 138.798 185.64 153.97 189.705L155.006 185.841ZM185.053 168.493C181.546 181.581 168.094 189.348 155.006 185.841L153.97 189.705C169.192 193.784 184.838 184.75 188.917 169.529L185.053 168.493ZM185.749 165.897L185.053 168.493L188.917 169.529L189.613 166.932L185.749 165.897ZM21.894 95.6972C24.845 100.38 28.0233 105.224 30.1502 110.21C32.2675 115.173 33.2228 120.015 31.9718 124.684L35.8355 125.719C37.4125 119.834 36.1215 114.013 33.8293 108.64C31.5467 103.29 28.1522 98.1256 25.2782 93.5647L21.894 95.6972ZM89.7433 121.847C88.6769 121.561 88.0441 120.465 88.3298 119.399L92.1935 120.434C92.4796 119.366 91.8461 118.269 90.7785 117.983L89.7433 121.847ZM104.728 65.9228C105.794 66.2084 106.427 67.3043 106.141 68.3709L102.278 67.3356C101.992 68.4035 102.626 69.5005 103.693 69.7865L104.728 65.9228ZM223.845 105.807C220.893 101.123 217.712 96.2774 215.584 91.2906C213.465 86.3261 212.509 81.4824 213.76 76.8122L209.896 75.7769C208.319 81.6639 209.611 87.4866 211.905 92.8608C214.189 98.2126 217.586 103.378 220.461 107.94L223.845 105.807ZM56.115 34.5801C54.8641 39.2488 51.6156 42.9647 47.3004 46.2041C42.9658 49.4581 37.7913 52.0641 32.8941 54.6443L34.7586 58.1832C39.528 55.6703 45.0498 52.8953 49.7019 49.403C54.3733 45.8961 58.4018 41.5005 59.9787 35.6153L56.115 34.5801ZM92.1914 120.433C91.9057 121.5 90.8096 122.132 89.7433 121.847L90.7785 117.983C89.711 117.697 88.6137 118.33 88.3277 119.398L92.1914 120.433ZM102.28 67.3362C102.566 66.2699 103.662 65.637 104.728 65.9228L103.693 69.7865C104.76 70.0725 105.858 69.439 106.144 68.3715L102.28 67.3362ZM210.98 143.325C206.209 145.838 200.684 148.614 196.03 152.106C191.357 155.614 187.326 160.01 185.749 165.897L189.613 166.932C190.864 162.262 194.114 158.545 198.431 155.306C202.768 152.051 207.945 149.445 212.844 146.864L210.98 143.325Z" fill="#FF8071" mask="url(#path-1-outside-1_26_1245)"/>
<path d="M78.3165 65.7763L70.7539 77.2389L74.3553 64.6437L72.5862 64.1379L68.4625 78.5599L71.27 79.3626L78.8326 67.9L75.2312 80.4953L77.0003 81.0011L81.124 66.5791L78.3165 65.7763ZM83.6881 76.8393L83.2757 78.2815L84.7948 78.7159C85.8909 79.0293 86.421 79.7217 86.1626 80.6255C85.9261 81.4523 85.1541 81.8972 83.6542 81.4684C82.0774 81.0175 81.5089 80.0229 81.8828 78.7153L79.9599 78.1655C79.3056 80.4538 80.5085 82.2122 83.2006 82.982C85.835 83.7352 87.5522 83.0405 88.069 81.233C88.3769 80.1561 88.009 79.2605 87.0366 78.5872C88.0943 78.4528 88.8114 77.7634 89.0809 76.8211C89.5097 75.3213 88.6172 73.714 86.0597 72.9827C83.3483 72.2074 81.4937 73.3829 80.9549 75.2674L82.8779 75.8172C83.2297 74.5865 84.2161 74.1197 85.6198 74.521C86.9467 74.9004 87.4218 75.6395 87.1909 76.4472C86.9489 77.2932 86.2648 77.5761 85.2072 77.2737L83.6881 76.8393ZM95.9333 86.4146L101.001 78.8773L98.6254 87.1844L100.548 87.7342L103.297 78.1195L100.105 77.2068L95.4557 84.4475L95.3365 75.8432L92.0868 74.914L89.3376 84.5287L91.1067 85.0346L93.482 76.7275L93.7796 85.7988L95.9333 86.4146ZM113.157 86.8463C113.237 86.6403 113.317 86.4343 113.383 86.2035C114.224 83.2614 112.812 80.632 110.082 79.8513C107.351 79.0705 104.763 80.5563 103.922 83.4984C103.08 86.4405 104.492 89.0698 107.223 89.8506C109.434 90.4829 111.42 89.8651 112.583 88.055L110.506 87.4612C109.874 88.2165 108.956 88.5158 107.783 88.1804C106.168 87.7185 105.372 86.4299 105.619 84.691L113.157 86.8463ZM109.598 81.5435C111.136 81.9833 111.919 83.2472 111.688 84.9285L106.034 83.312C106.727 81.7627 108.04 81.0981 109.598 81.5435ZM115.929 92.132L117.067 88.1515L121.682 89.4711L120.544 93.4516L122.467 94.0014L125.216 84.3867L123.293 83.8369L122.183 87.7212L117.567 86.4016L118.678 82.5173L116.755 81.9675L114.006 91.5822L115.929 92.132ZM133.858 97.2585L136.607 87.6438L134.165 86.9455L127.568 93.3589L129.762 85.6864L127.916 85.1586L125.167 94.7733L127.609 95.4716L134.206 89.0581L132.012 96.7307L133.858 97.2585ZM149.321 95.4186L151.321 95.9904C151.778 93.5208 150.259 91.3392 147.721 90.6134C144.971 89.8272 142.344 91.3019 141.503 94.244C140.662 97.1861 142.112 99.8265 144.862 100.613C147.477 101.36 149.98 100.246 150.859 97.7513L148.86 97.1795C148.211 98.7205 146.771 99.245 145.368 98.8436C143.733 98.3763 142.871 96.736 143.426 94.7938C143.981 92.8517 145.58 91.9152 147.215 92.3825C148.599 92.7784 149.547 93.9022 149.321 95.4186ZM151.7 102.36L156.623 103.768C158.623 104.339 160.117 103.768 160.645 101.922C160.992 100.711 160.538 99.7492 159.58 99.1006C160.506 98.9909 161.193 98.4801 161.484 97.4609C161.962 95.788 160.987 94.6147 159.218 94.1089L154.449 92.7453L151.7 102.36ZM158.243 95.4109C159.435 95.7518 159.825 96.2793 159.577 97.1446C159.347 97.9523 158.72 98.2516 157.528 97.9107L155.163 97.2344L155.877 94.7346L158.243 95.4109ZM157.495 99.4821C158.571 99.79 158.992 100.43 158.739 101.315C158.486 102.199 157.791 102.521 156.714 102.213L153.964 101.426L154.745 98.6958L157.495 99.4821ZM166.302 106.743C169.09 107.54 171.755 106.077 172.597 103.135C173.438 100.192 171.949 97.5411 169.161 96.7438C166.373 95.9466 163.708 97.4103 162.867 100.352C162.025 103.295 163.514 105.946 166.302 106.743ZM166.808 104.974C165.135 104.496 164.234 102.844 164.789 100.902C165.345 98.9601 166.982 98.0346 168.655 98.5129C170.328 98.9913 171.229 100.643 170.674 102.585C170.118 104.527 168.481 105.452 166.808 104.974ZM178.702 97.2462C179.337 97.4276 179.96 97.0651 180.136 96.4498C180.312 95.8344 179.975 95.197 179.34 95.0156C178.725 94.8396 178.082 95.1966 177.906 95.812C177.73 96.4273 178.087 97.0702 178.702 97.2462ZM182.548 98.3458C183.183 98.5273 183.806 98.1647 183.982 97.5494C184.158 96.9341 183.82 96.2966 183.186 96.1152C182.571 95.9393 181.928 96.2963 181.752 96.9116C181.576 97.5269 181.933 98.1699 182.548 98.3458ZM183.112 106.849C183.192 106.643 183.272 106.436 183.338 106.206C184.179 103.264 182.767 100.634 180.037 99.8535C177.306 99.0728 174.718 100.559 173.877 103.501C173.036 106.443 174.447 109.072 177.178 109.853C179.389 110.485 181.376 109.867 182.538 108.057L180.461 107.463C179.829 108.219 178.912 108.518 177.739 108.183C176.123 107.721 175.327 106.432 175.574 104.693L183.112 106.849ZM179.553 101.546C181.091 101.986 181.874 103.249 181.643 104.931L175.99 103.314C176.682 101.765 177.995 101.1 179.553 101.546ZM53.8394 93.1001L56.0826 85.2545L59.1978 86.1452L59.7036 84.3761L51.5504 82.0448L51.0445 83.8139L54.1597 84.7046L51.9164 92.5502L53.8394 93.1001ZM68.3457 92.7547C68.4254 92.5487 68.5051 92.3427 68.5711 92.1119C69.4124 89.1698 68.0008 86.5405 65.2702 85.7597C62.5397 84.979 59.9515 86.4647 59.1103 89.4068C58.269 92.3489 59.6806 94.9783 62.4112 95.759C64.6225 96.3913 66.6089 95.7736 67.7713 93.9634L65.6945 93.3696C65.0625 94.1249 64.1449 94.4242 62.9719 94.0888C61.3566 93.627 60.5602 92.3384 60.8078 90.5994L68.3457 92.7547ZM64.7864 87.4519C66.3247 87.8918 67.1074 89.1556 66.8763 90.8369L61.2229 89.2204C61.9155 87.6711 63.2288 87.0066 64.7864 87.4519ZM77.1529 99.7661L79.902 90.1514L72.7871 88.117C71.5308 92.4382 70.9233 94.0534 70.4562 94.8143C70.0549 95.49 69.5439 95.6767 69.0247 95.5283L68.8709 95.4843L68.365 97.2534L68.7112 97.3524C70.2495 97.7922 71.2771 97.3996 72.3682 95.1114C72.8189 94.117 73.3494 92.6253 74.0312 90.3865L77.4732 91.3707L75.2299 99.2163L77.1529 99.7661ZM83.9467 101.917C86.735 102.714 89.4001 101.25 90.2413 98.3081C91.0825 95.366 89.5941 92.7146 86.8058 91.9174C84.0175 91.1201 81.3525 92.5839 80.5112 95.526C79.67 98.4681 81.1585 101.119 83.9467 101.917ZM84.4525 100.148C82.7796 99.6692 81.8788 98.018 82.4342 96.0758C82.9895 94.1336 84.627 93.2081 86.3 93.6865C87.9729 94.1648 88.8737 95.8161 88.3184 97.7582C87.763 99.7004 86.1255 100.626 84.4525 100.148ZM99.136 99.9777L98.7236 101.42L100.243 101.854C101.339 102.168 101.869 102.86 101.61 103.764C101.374 104.591 100.602 105.036 99.1021 104.607C97.5253 104.156 96.9568 103.161 97.3307 101.854L95.4077 101.304C94.7534 103.592 95.9564 105.351 98.6485 106.12C101.283 106.874 103 106.179 103.517 104.371C103.825 103.294 103.457 102.399 102.484 101.726C103.542 101.591 104.259 100.902 104.529 99.9595C104.958 98.4596 104.065 96.8523 101.508 96.121C98.7962 95.3458 96.9416 96.5212 96.4028 98.4057L98.3257 98.9555C98.6776 97.7249 99.664 97.258 101.068 97.6594C102.395 98.0388 102.87 98.7779 102.639 99.5855C102.397 100.432 101.713 100.714 100.655 100.412L99.136 99.9777ZM107.424 108.63C108.809 109.026 110.194 108.839 111.191 107.751L110.729 109.367L112.614 109.905L114.538 103.175C115.176 100.944 113.495 99.5486 111.418 98.9547C109.303 98.3499 107.034 98.7204 106.324 101.201L108.324 101.773C108.682 100.523 109.728 100.136 110.978 100.493C112.151 100.828 112.907 101.606 112.637 102.548C112.01 104.74 106.124 100.811 104.936 104.964C104.392 106.868 105.713 108.14 107.424 108.63ZM106.931 105.41C107.392 103.795 110.2 105.034 112.06 104.713L111.862 105.405C111.383 107.078 109.752 107.548 108.271 107.124C107.29 106.844 106.694 106.237 106.931 105.41ZM121.349 112.403L123.592 104.557L127.938 105.8L125.695 113.646L127.618 114.196L130.367 104.581L122.175 102.239L119.426 111.853L121.349 112.403ZM134.441 116.354C137.229 117.152 139.894 115.688 140.736 112.746C141.577 109.804 140.088 107.152 137.3 106.355C134.512 105.558 131.847 107.022 131.006 109.964C130.164 112.906 131.653 115.557 134.441 116.354ZM134.947 114.585C133.274 114.107 132.373 112.456 132.929 110.514C133.484 108.571 135.121 107.646 136.794 108.124C138.467 108.603 139.368 110.254 138.813 112.196C138.257 114.138 136.62 115.064 134.947 114.585ZM149.311 120.398L152.06 110.784L144.945 108.749C143.689 113.07 143.082 114.686 142.614 115.446C142.213 116.122 141.702 116.309 141.183 116.16L141.029 116.116L140.523 117.886L140.869 117.985C142.408 118.424 143.435 118.032 144.526 115.744C144.977 114.749 145.508 113.257 146.189 111.019L149.631 112.003L147.388 119.848L149.311 120.398ZM153.929 121.719L156.173 113.873L160.576 115.132L161.082 113.363L154.756 111.554L152.006 121.169L153.929 121.719ZM163.904 124.779C166.692 125.576 169.357 124.112 170.199 121.17C171.04 118.228 169.551 115.577 166.763 114.78C163.975 113.982 161.31 115.446 160.469 118.388C159.627 121.33 161.116 123.982 163.904 124.779ZM164.41 123.01C162.737 122.531 161.836 120.88 162.392 118.938C162.947 116.996 164.584 116.07 166.257 116.549C167.93 117.027 168.831 118.678 168.276 120.62C167.72 122.563 166.083 123.488 164.41 123.01ZM170.245 124.47L168.997 128.835L170.766 129.341L171.508 126.745L178.565 128.763L177.823 131.359L179.592 131.865L180.84 127.5L179.494 127.115L181.738 119.269L174.334 117.152C172.685 122.776 171.926 123.973 171.187 124.74L170.245 124.47ZM174.284 123.149C174.646 122.317 175.064 121.147 175.578 119.422L179.309 120.488L177.571 126.565L173.129 125.295C173.459 124.869 173.811 124.221 174.284 123.149ZM184.935 130.792C186.319 131.188 187.704 131.001 188.701 129.914L188.239 131.529L190.124 132.068L192.048 125.338C192.686 123.107 191.005 121.711 188.928 121.117C186.813 120.512 184.544 120.883 183.834 123.363L185.834 123.935C186.192 122.685 187.238 122.298 188.488 122.656C189.661 122.991 190.417 123.769 190.147 124.711C189.521 126.903 183.634 122.973 182.446 127.127C181.902 129.031 183.223 130.303 184.935 130.792ZM184.441 127.572C184.903 125.957 187.71 127.197 189.57 126.875L189.372 127.568C188.894 129.241 187.262 129.71 185.781 129.287C184.8 129.006 184.204 128.399 184.441 127.572Z" fill="#FF8071"/>
</svg>
